<?xml version="1.0" encoding="utf-8"?>
<!-- Generator: Adobe Illustrator 25.0.1, SVG Export Plug-In . SVG Version: 6.00 Build 0)  -->
<svg version="1.1" id="Layer_1" xmlns="http://www.w3.org/2000/svg" xmlns:xlink="http://www.w3.org/1999/xlink" x="0px" y="0px"
	 viewBox="0 0 64 64" style="enable-background:new 0 0 64 64;" xml:space="preserve">
<style type="text/css">
	.st0{fill:#073D49;}
</style>
<path class="st0" d="M59.7,8h-25V5.3c0-1.6-1.1-2.7-2.7-2.7c-1.6,0-2.7,1.1-2.7,2.7V8h-25C1.9,8,0,9.9,0,12.3v26.1
	c0,2.4,1.9,4.3,4.3,4.3h10.9L6.9,57.3C6.1,58.6,6.6,60.2,8,61c0.3,0.3,0.8,0.3,1.3,0.3c1.1,0,1.9-0.5,2.4-1.3l9.6-17.3h8v16
	c0,1.6,1.1,2.7,2.7,2.7s2.7-1.1,2.7-2.7v-16H43L52.8,60c0.5,0.8,1.3,1.3,2.4,1.3c0.5,0,0.8,0,1.3-0.3c1.3-0.8,1.9-2.4,1.1-3.7
	l-8.5-14.7h10.7c2.4,0,4.3-1.9,4.3-4.3v-26C64,9.9,62.1,8,59.7,8z M58.7,37.3H5.3v-24h53.3v24H58.7z"/>
</svg>
